<svg width="20" height="22" viewBox="0 0 20 22" fill="none" xmlns="http://www.w3.org/2000/svg">
<path d="M17.7778 2.2H16.6667V1.1C16.6667 0.495 16.1667 0 15.5556 0C14.9444 0 14.4444 0.495 14.4444 1.1V2.2H5.55556V1.1C5.55556 0.495 5.05556 0 4.44444 0C3.83333 0 3.33333 0.495 3.33333 1.1V2.2H2.22222C0.988889 2.2 0.0111111 3.19 0.0111111 4.4L0 19.8C0 20.3835 0.234126 20.9431 0.650874 21.3556C1.06762 21.7682 1.63285 22 2.22222 22H17.7778C19 22 20 21.01 20 19.8V4.4C20 3.19 19 2.2 17.7778 2.2ZM17.7778 18.7C17.7778 19.305 17.2778 19.8 16.6667 19.8H3.33333C2.72222 19.8 2.22222 19.305 2.22222 18.7V7.7H17.7778V18.7ZM4.44444 9.9H6.66667V12.1H4.44444V9.9ZM8.88889 9.9H11.1111V12.1H8.88889V9.9ZM13.3333 9.9H15.5556V12.1H13.3333V9.9Z" fill="#1A1A1A"/>
</svg>
