<svg width="40" height="40" viewBox="0 0 40 40" fill="none" xmlns="http://www.w3.org/2000/svg">
<path d="M32.3098 15.386H29.2339C29.2327 14.1627 28.7462 12.9899 27.8812 12.1249C27.0162 11.2599 25.8434 10.7734 24.6201 10.7722V7.69629C26.6588 7.69873 28.6133 8.50968 30.0548 9.95124C31.4964 11.3928 32.3074 13.3473 32.3098 15.386Z" fill="white"/>
<path d="M38.462 15.3862H35.3861C35.3829 12.532 34.2476 9.79563 32.2294 7.7774C30.2111 5.75917 27.4748 4.6239 24.6206 4.62065V1.54477C28.2903 1.54884 31.8085 3.00844 34.4034 5.60333C36.9983 8.19822 38.4579 11.7165 38.462 15.3862ZM35.3861 39.9932H35.1247C4.90421 38.2553 0.613367 12.7563 0.0135715 4.97437C-0.0801716 3.7544 0.31452 2.54715 1.11083 1.61817C1.90714 0.689188 3.03985 0.11456 4.25981 0.0206789C4.38182 0.0114513 4.50435 0.00683738 4.62738 0.00683738H12.7323C13.3483 0.00624102 13.9504 0.190636 14.4604 0.536136C14.9704 0.881637 15.3649 1.37232 15.5929 1.94464L17.9305 7.69652C18.1556 8.25563 18.2115 8.86855 18.0912 9.45914C17.9709 10.0497 17.6797 10.5919 17.2538 11.0185L13.978 14.325C14.4877 17.2338 15.8795 19.9154 17.9649 22.0063C20.0502 24.0971 22.7282 25.4961 25.6356 26.0133L28.9729 22.7068C29.4058 22.2856 29.9532 22.0013 30.5467 21.8891C31.1401 21.777 31.7535 21.8421 32.3102 22.0762L38.1083 24.3985C38.6719 24.6336 39.1529 25.0312 39.4898 25.5407C39.8266 26.0501 40.0042 26.6483 39.9999 27.2591V35.3794C39.9999 36.603 39.5138 37.7766 38.6486 38.6418C37.7833 39.5071 36.6098 39.9932 35.3861 39.9932ZM4.62738 3.08271C4.42542 3.0821 4.22531 3.12128 4.03849 3.19801C3.85166 3.27474 3.68178 3.38751 3.53854 3.5299C3.3953 3.67228 3.28151 3.84148 3.20366 4.02784C3.12582 4.2142 3.08544 4.41407 3.08483 4.61603C3.08483 4.6591 3.08637 4.70164 3.08944 4.74368C3.7969 13.8483 8.33381 35.3794 35.2938 36.9173C35.7009 36.9417 36.101 36.8034 36.4061 36.5329C36.7112 36.2624 36.8964 35.8818 36.921 35.4747L36.924 35.3794V27.2591L31.126 24.9368L26.7122 29.3199L25.9739 29.2276C12.5939 27.5513 10.7791 14.1712 10.7791 14.0328L10.6869 13.2946L15.0546 8.88073L12.7477 3.08271H4.62738Z" fill="white"/>
</svg>
