<svg width="20" height="21" viewBox="0 0 20 21" fill="none" xmlns="http://www.w3.org/2000/svg">
<path fill-rule="evenodd" clip-rule="evenodd" d="M5.87727 0.770937C6.94364 0.721847 7.28364 0.710938 10 0.710938C12.7164 0.710938 13.0564 0.722756 14.1218 0.770937C15.1873 0.819119 15.9145 0.989119 16.5509 1.23548C17.2173 1.4873 17.8218 1.88094 18.3218 2.39003C18.8309 2.88912 19.2236 3.49276 19.4745 4.16003C19.7218 4.79639 19.8909 5.52366 19.94 6.5873C19.9891 7.65548 20 7.99548 20 10.7109C20 13.4273 19.9882 13.7673 19.94 14.8337C19.8918 15.8973 19.7218 16.6246 19.4745 17.2609C19.2236 17.9283 18.8303 18.5329 18.3218 19.0328C17.8218 19.5418 17.2173 19.9346 16.5509 20.1855C15.9145 20.4328 15.1873 20.6018 14.1236 20.6509C13.0564 20.7 12.7164 20.7109 10 20.7109C7.28364 20.7109 6.94364 20.6991 5.87727 20.6509C4.81364 20.6028 4.08636 20.4328 3.45 20.1855C2.78266 19.9345 2.17802 19.5412 1.67818 19.0328C1.16944 18.5334 0.775741 17.929 0.524545 17.2618C0.278182 16.6255 0.109091 15.8982 0.06 14.8346C0.0109091 13.7664 0 13.4264 0 10.7109C0 7.99457 0.0118182 7.65457 0.06 6.58912C0.108182 5.52366 0.278182 4.79639 0.524545 4.16003C0.776112 3.49283 1.17011 2.88849 1.67909 2.38912C2.17822 1.88048 2.78225 1.4868 3.44909 1.23548C4.08545 0.989119 4.81273 0.820028 5.87636 0.770937H5.87727ZM14.0409 2.57094C12.9864 2.52276 12.67 2.51276 10 2.51276C7.33 2.51276 7.01364 2.52276 5.95909 2.57094C4.98364 2.61548 4.45455 2.77821 4.10182 2.91548C3.63545 3.0973 3.30182 3.31276 2.95182 3.66276C2.62004 3.98553 2.36471 4.37847 2.20455 4.81276C2.06727 5.16548 1.90455 5.69457 1.86 6.67003C1.81182 7.72457 1.80182 8.04094 1.80182 10.7109C1.80182 13.3809 1.81182 13.6973 1.86 14.7518C1.90455 15.7273 2.06727 16.2564 2.20455 16.6091C2.36455 17.0428 2.62 17.4364 2.95182 17.7591C3.27455 18.0909 3.66818 18.3464 4.10182 18.5064C4.45455 18.6437 4.98364 18.8064 5.95909 18.8509C7.01364 18.8991 7.32909 18.9091 10 18.9091C12.6709 18.9091 12.9864 18.8991 14.0409 18.8509C15.0164 18.8064 15.5455 18.6437 15.8982 18.5064C16.3645 18.3246 16.6982 18.1091 17.0482 17.7591C17.38 17.4364 17.6355 17.0428 17.7955 16.6091C17.9327 16.2564 18.0955 15.7273 18.14 14.7518C18.1882 13.6973 18.1982 13.3809 18.1982 10.7109C18.1982 8.04094 18.1882 7.72457 18.14 6.67003C18.0955 5.69457 17.9327 5.16548 17.7955 4.81276C17.6136 4.34639 17.3982 4.01276 17.0482 3.66276C16.7254 3.331 16.3325 3.07567 15.8982 2.91548C15.5455 2.77821 15.0164 2.61548 14.0409 2.57094ZM8.72273 13.7937C9.43605 14.0906 10.2303 14.1307 10.9699 13.907C11.7095 13.6834 12.3485 13.21 12.7778 12.5675C13.2071 11.9251 13.4001 11.1535 13.3237 10.3847C13.2473 9.61579 12.9064 8.89728 12.3591 8.35185C12.0102 8.00319 11.5884 7.73622 11.1239 7.57016C10.6595 7.4041 10.164 7.34308 9.67318 7.3915C9.18233 7.43991 8.70832 7.59655 8.28528 7.85015C7.86223 8.10374 7.50068 8.44798 7.22664 8.85808C6.9526 9.26817 6.7729 9.73393 6.70047 10.2218C6.62804 10.7097 6.66468 11.2076 6.80776 11.6796C6.95084 12.1516 7.1968 12.586 7.52793 12.9516C7.85906 13.3172 8.26711 13.6047 8.72273 13.7937ZM6.36545 7.07639C6.84275 6.5991 7.40938 6.22049 8.033 5.96218C8.65662 5.70387 9.325 5.57091 10 5.57091C10.675 5.57091 11.3434 5.70386 11.967 5.96217C12.5906 6.22049 13.1573 6.5991 13.6345 7.07639C14.1118 7.55369 14.4905 8.12032 14.7488 8.74394C15.0071 9.36755 15.14 10.0359 15.14 10.7109C15.14 11.3859 15.0071 12.0543 14.7488 12.6779C14.4905 13.3016 14.1118 13.8682 13.6345 14.3455C12.6706 15.3094 11.3632 15.851 10 15.851C8.63678 15.851 7.3294 15.3094 6.36545 14.3455C5.40151 13.3815 4.85998 12.0742 4.85998 10.7109C4.85998 9.34772 5.40151 8.04033 6.36545 7.07639ZM16.28 6.33639C16.3983 6.22482 16.493 6.09065 16.5585 5.94182C16.624 5.793 16.6589 5.63255 16.6613 5.46996C16.6637 5.30738 16.6334 5.14598 16.5723 4.99531C16.5111 4.84464 16.4204 4.70777 16.3054 4.59279C16.1904 4.47782 16.0536 4.38708 15.9029 4.32595C15.7522 4.26483 15.5908 4.23455 15.4282 4.23692C15.2657 4.23929 15.1052 4.27426 14.9564 4.33975C14.8076 4.40525 14.6734 4.49993 14.5618 4.61821C14.3448 4.84824 14.226 5.15378 14.2306 5.46996C14.2352 5.78615 14.3629 6.0881 14.5865 6.3117C14.8101 6.53531 15.1121 6.66296 15.4282 6.66757C15.7444 6.67218 16.05 6.55338 16.28 6.33639Z" fill="white"/>
</svg>
