<svg width="20" height="21" viewBox="0 0 20 21" fill="none" xmlns="http://www.w3.org/2000/svg">
<path d="M19.2 0.710938H0.8C0.3575 0.710938 0 1.06844 0 1.51094V19.9109C0 20.3534 0.3575 20.7109 0.8 20.7109H19.2C19.6425 20.7109 20 20.3534 20 19.9109V1.51094C20 1.06844 19.6425 0.710938 19.2 0.710938ZM18.4 19.1109H13.7975V12.9659H16.3975L16.7875 9.94844H13.7975V8.02094C13.7975 7.14594 14.04 6.55094 15.2925 6.55094H16.89V3.85094C16.6125 3.81344 15.665 3.73094 14.56 3.73094C12.255 3.73094 10.6775 5.13844 10.6775 7.72094V9.94594H8.0725V12.9634H10.68V19.1109H1.6V2.31094H18.4V19.1109Z" fill="white"/>
</svg>
