<svg width="20" height="21" viewBox="0 0 20 21" fill="none" xmlns="http://www.w3.org/2000/svg">
<path d="M17.5385 1H1.46154C1.07391 1 0.702166 1.15398 0.428075 1.42807C0.153983 1.70217 0 2.07391 0 2.46154V18.5385C0 18.9261 0.153983 19.2978 0.428075 19.5719C0.702166 19.846 1.07391 20 1.46154 20H17.5385C17.9261 20 18.2978 19.846 18.5719 19.5719C18.846 19.2978 19 18.9261 19 18.5385V2.46154C19 2.07391 18.846 1.70217 18.5719 1.42807C18.2978 1.15398 17.9261 1 17.5385 1ZM17.5385 18.5385H1.46154V2.46154H17.5385V18.5385ZM6.57692 9.03846V14.8846C6.57692 15.0784 6.49993 15.2643 6.36289 15.4013C6.22584 15.5384 6.03997 15.6154 5.84615 15.6154C5.65234 15.6154 5.46647 15.5384 5.32942 15.4013C5.19238 15.2643 5.11538 15.0784 5.11538 14.8846V9.03846C5.11538 8.84465 5.19238 8.65878 5.32942 8.52173C5.46647 8.38468 5.65234 8.30769 5.84615 8.30769C6.03997 8.30769 6.22584 8.38468 6.36289 8.52173C6.49993 8.65878 6.57692 8.84465 6.57692 9.03846ZM14.6154 11.5962V14.8846C14.6154 15.0784 14.5384 15.2643 14.4013 15.4013C14.2643 15.5384 14.0784 15.6154 13.8846 15.6154C13.6908 15.6154 13.5049 15.5384 13.3679 15.4013C13.2308 15.2643 13.1538 15.0784 13.1538 14.8846V11.5962C13.1538 11.1116 12.9614 10.6469 12.6188 10.3043C12.2761 9.96171 11.8115 9.76923 11.3269 9.76923C10.8424 9.76923 10.3777 9.96171 10.0351 10.3043C9.69248 10.6469 9.5 11.1116 9.5 11.5962V14.8846C9.5 15.0784 9.42301 15.2643 9.28596 15.4013C9.14892 15.5384 8.96304 15.6154 8.76923 15.6154C8.57542 15.6154 8.38954 15.5384 8.2525 15.4013C8.11545 15.2643 8.03846 15.0784 8.03846 14.8846V9.03846C8.03937 8.85946 8.10594 8.68702 8.22555 8.55385C8.34516 8.42068 8.50949 8.33604 8.68736 8.31599C8.86523 8.29594 9.04428 8.34187 9.19054 8.44507C9.33679 8.54827 9.44008 8.70156 9.48082 8.87587C9.97517 8.54051 10.5515 8.34615 11.148 8.31365C11.7445 8.28115 12.3386 8.41174 12.8664 8.6914C13.3943 8.97106 13.836 9.38923 14.1441 9.90099C14.4523 10.4128 14.6152 10.9988 14.6154 11.5962ZM6.94231 6.48077C6.94231 6.69757 6.87802 6.9095 6.75757 7.08976C6.63713 7.27002 6.46593 7.41052 6.26563 7.49348C6.06534 7.57645 5.84494 7.59816 5.6323 7.55586C5.41967 7.51357 5.22436 7.40917 5.07106 7.25587C4.91776 7.10257 4.81336 6.90725 4.77106 6.69462C4.72877 6.48199 4.75047 6.26159 4.83344 6.06129C4.9164 5.86099 5.0569 5.6898 5.23716 5.56935C5.41743 5.4489 5.62935 5.38462 5.84615 5.38462C6.13687 5.38462 6.41568 5.5001 6.62125 5.70567C6.82682 5.91124 6.94231 6.19005 6.94231 6.48077Z" fill="white"/>
</svg>
