<svg width="136" height="129" viewBox="0 0 136 129" fill="none" xmlns="http://www.w3.org/2000/svg">
<rect width="136" height="129" fill="white"/>
<path fill-rule="evenodd" clip-rule="evenodd" d="M55.9722 22.0511C60.8262 20.9024 66.7948 20.8553 73.7826 21.7978C74.326 25.6899 74.449 30.3154 73.8644 34.7879C73.1448 40.2952 71.4234 45.0448 68.6486 48.0533C62.9278 54.2558 53.223 54.6819 46.9726 49.0051C40.722 43.3283 40.2924 33.6984 46.0132 27.4959C47.554 25.8254 49.438 24.4989 51.6508 23.4988L52.4702 18.9153C48.7804 20.1433 45.6012 22.0638 43.0626 24.816C35.8502 32.6356 36.3918 44.7763 44.2718 51.9332C52.152 59.0899 64.387 58.5527 71.5992 50.7331C78.7304 43.0015 79.1868 28.0097 77.2992 18.6209C77.2604 18.427 77.103 18.2811 76.9064 18.2493C69.4666 17.0431 62.6068 16.7631 56.7254 17.8375L55.9722 22.0511Z" fill="#002550"/>
<path fill-rule="evenodd" clip-rule="evenodd" d="M65.9736 8.44051C71.9652 2.49508 81.6794 2.49508 87.671 8.44051C93.6624 14.3859 93.6624 24.0254 87.671 29.9709C86.132 31.4978 84.295 32.6989 82.172 33.5892L81.4694 38.0719C84.9468 36.9905 87.9912 35.2664 90.4994 32.7775C98.053 25.282 98.053 13.1294 90.4994 5.63385C82.9458 -1.86168 70.6988 -1.86168 63.1452 5.63385C55.6766 13.0451 54.5528 28.0023 56.0202 37.4646C56.0504 37.6601 56.201 37.8127 56.396 37.8532C64.08 39.4478 71.1804 40.0116 77.2692 39.0414L77.9206 34.8856C72.9384 35.9202 66.8236 35.731 59.675 34.4452C59.3056 30.5329 59.3886 25.9068 60.1718 21.464C61.1362 15.9939 63.0676 11.3243 65.9736 8.44051Z" fill="#002550"/>
<path d="M18.0706 110.999H0.717659V108.941C2.3336 108.941 3.50882 108.814 4.24334 108.562C4.97784 108.273 5.43692 107.749 5.62054 106.991C5.8409 106.197 5.95108 105.023 5.95108 103.471V83.052C5.95108 81.6078 5.8409 80.4885 5.62054 79.694C5.43692 78.8998 4.97784 78.3401 4.24334 78.015C3.50882 77.654 2.3336 77.4734 0.717659 77.4734V75.4154H18.1808V77.4734C16.5281 77.4734 15.3161 77.654 14.5449 78.015C13.8104 78.3401 13.3513 78.9178 13.1677 79.7482C13.0208 80.5426 12.9473 81.6439 12.9473 83.052V103.471C12.9473 104.987 13.0391 106.143 13.2228 106.937C13.4431 107.731 13.9022 108.273 14.6 108.562C15.3345 108.814 16.4914 108.941 18.0706 108.941V110.999Z" fill="#002550"/>
<path d="M56.6722 111.378H51.9896L30.2848 83.052H28.4668L27.0346 80.6149C26.3734 79.7121 25.7674 79.0441 25.2166 78.6108C24.7024 78.1776 24.1516 77.8888 23.564 77.7443C23.013 77.5637 22.3336 77.4734 21.5256 77.4734V75.4154H33.3146L53.0364 101.142H53.3118V84.4603C53.3118 82.9436 53.22 81.68 53.0364 80.6691C52.8528 79.6218 52.3936 78.8275 51.6592 78.2859C50.9614 77.7443 49.7678 77.4734 48.0784 77.4734V75.4154H61.6302V77.4734C60.1244 77.4734 59.0042 77.7443 58.2698 78.2859C57.572 78.8275 57.1312 79.6398 56.9476 80.723C56.764 81.7703 56.6722 83.052 56.6722 84.5686V111.378ZM35.0224 110.999H21.5256V108.941C22.9946 108.941 24.0964 108.58 24.831 107.858C25.5654 107.099 26.0612 106.052 26.3184 104.716C26.5754 103.38 26.704 101.81 26.704 100.004V79.2066H30.0094V102.496C30.0094 104.301 30.1378 105.673 30.395 106.612C30.652 107.515 31.1478 108.128 31.8824 108.453C32.6168 108.778 33.6636 108.941 35.0224 108.941V110.999Z" fill="#002550"/>
<path d="M82.4752 110.999H64.902V108.941C66.2974 108.941 67.3442 108.833 68.042 108.616C68.7764 108.399 69.2722 107.93 69.5294 107.208C69.7864 106.486 69.915 105.366 69.915 103.85V81.6439C69.915 80.5607 69.8048 79.7301 69.5844 79.1524C69.364 78.5386 68.8866 78.1053 68.1522 77.8527C67.4544 77.5998 66.371 77.4734 64.902 77.4734V75.4154H81.2082C83.8524 75.4154 86.258 75.6863 88.4248 76.2279C90.6282 76.7695 92.3728 77.7082 93.6582 79.0441C94.9436 80.344 95.5862 82.1494 95.5862 84.4603C95.5862 86.4461 95.1456 88.0709 94.2642 89.3347C93.4194 90.5624 92.3176 91.5191 90.9588 92.2052C89.6366 92.8913 88.2044 93.4149 86.662 93.7759V94.0468C87.2496 94.4078 87.8922 95.0035 88.59 95.8339C89.3246 96.6645 90.2794 97.9102 91.4546 99.5711C92.6298 101.196 94.209 103.398 96.1922 106.179C97.0736 107.37 97.9368 108.128 98.7814 108.453C99.6628 108.778 100.728 108.941 101.977 108.941V110.999H90.7384C89.4164 108.796 88.3146 106.973 87.4332 105.529C86.5518 104.085 85.7988 102.893 85.1746 101.954C84.5502 100.979 83.981 100.113 83.4668 99.3544C82.9894 98.56 82.4752 97.7477 81.9242 96.9171C81.4102 96.0867 80.9144 95.5813 80.4368 95.4007C79.9594 95.1839 79.2434 95.0758 78.2884 95.0758H77.0214V103.904C77.0214 105.348 77.15 106.449 77.407 107.208C77.6642 107.93 78.1782 108.399 78.9496 108.616C79.7208 108.833 80.896 108.941 82.4752 108.941V110.999ZM77.0214 92.6385L79.1148 92.6927C81.0246 92.5843 82.6404 92.2775 83.9626 91.772C85.3214 91.2665 86.3498 90.454 87.0476 89.3347C87.782 88.2154 88.1494 86.6809 88.1494 84.731C88.1494 82.6368 87.5434 80.9759 86.3314 79.7482C85.1194 78.4844 83.1546 77.8527 80.4368 77.8527C79.8492 77.8527 79.2616 77.8708 78.674 77.9069C78.1232 77.9069 77.5722 77.9428 77.0214 78.015V92.6385Z" fill="#002550"/>
<path d="M134.265 110.999H103.471V108.941C104.83 108.941 105.876 108.851 106.611 108.67C107.382 108.453 107.915 108.02 108.208 107.37C108.539 106.72 108.704 105.709 108.704 104.337V82.4562C108.704 81.0842 108.576 80.0552 108.319 79.3691C108.098 78.6469 107.602 78.1595 106.831 77.9069C106.097 77.654 104.977 77.5276 103.471 77.5276V75.4154H133.714L134.045 84.8935H131.621C131.364 83.1965 130.978 81.8785 130.464 80.9398C129.987 80.001 129.197 79.3511 128.095 78.9901C127.03 78.6289 125.433 78.4485 123.303 78.4485H115.7V91.3927H121.209C122.972 91.3927 124.276 91.2844 125.121 91.0678C126.002 90.8511 126.571 90.3998 126.828 89.7137C127.122 88.9917 127.269 87.9266 127.269 86.5183H129.528V99.0295H127.269C127.269 97.5129 127.122 96.4116 126.828 95.7257C126.571 95.0035 126.002 94.5522 125.121 94.3716C124.276 94.1549 122.972 94.0468 121.209 94.0468H115.7V108.02H122.421C124.368 108.02 125.947 107.93 127.159 107.749C128.371 107.533 129.344 107.154 130.079 106.612C130.813 106.07 131.419 105.312 131.897 104.337C132.374 103.362 132.851 102.099 133.329 100.546H135.643L134.265 110.999Z" fill="#002550"/>
<path d="M17.5729 126.9V126.427H18.3933V122.397H17.5729V121.925H19.9568V122.397H19.1834V126.427H19.9568V126.9H17.5729Z" fill="#002550"/>
<path d="M20.8606 126.9V126.427H21.6708V122.397H20.8606V121.925H22.6762L25.0668 126.02V122.397H24.2464V121.925H26.479V122.397H25.709V126.9H24.8114L22.313 122.629V126.427H23.083V126.9H20.8606Z" fill="#002550"/>
<path d="M27.3324 126.9V126.427H28.1428V122.397H27.3324V121.925H29.148L31.5386 126.02V122.397H30.7182V121.925H32.9508V122.397H32.1808V126.9H31.2832L28.785 122.629V126.427H29.555V126.9H27.3324Z" fill="#002550"/>
<path d="M36.3664 126.989C36.0614 126.989 35.7768 126.942 35.5124 126.847C35.2478 126.75 35.0202 126.616 34.8298 126.447C34.646 126.281 34.488 126.089 34.3556 125.868C34.2256 125.646 34.1304 125.411 34.0698 125.164C34.007 124.92 33.9758 124.667 33.9758 124.407C33.9758 123.869 34.1024 123.384 34.3556 122.949C34.4902 122.72 34.6504 122.524 34.8364 122.361C35.0248 122.196 35.2466 122.065 35.5022 121.968C35.7712 121.871 36.0592 121.822 36.3664 121.822C36.6712 121.822 36.9558 121.871 37.2204 121.968C37.4872 122.065 37.7146 122.198 37.903 122.368C38.0868 122.533 38.2436 122.727 38.3736 122.949C38.5036 123.17 38.6 123.403 38.6628 123.65C38.7234 123.897 38.7536 124.149 38.7536 124.407C38.7536 124.945 38.627 125.431 38.3736 125.865C38.2392 126.094 38.0788 126.29 37.8928 126.453C37.7068 126.616 37.486 126.745 37.2304 126.84C36.966 126.939 36.678 126.989 36.3664 126.989ZM36.3664 126.526C36.6018 126.526 36.818 126.468 37.0152 126.351C37.2148 126.232 37.3784 126.07 37.5062 125.865C37.6318 125.667 37.727 125.443 37.792 125.194C37.8592 124.943 37.8928 124.683 37.8928 124.414C37.8928 124.198 37.8716 123.987 37.829 123.782C37.7886 123.577 37.7258 123.387 37.6406 123.21C37.4546 122.823 37.2092 122.554 36.9044 122.404C36.7406 122.325 36.5614 122.285 36.3664 122.285C36.131 122.285 35.9146 122.344 35.7174 122.463C35.5202 122.58 35.3566 122.741 35.2266 122.946C35.101 123.147 35.0046 123.372 34.9374 123.624C34.87 123.873 34.8364 124.132 34.8364 124.401C34.8364 124.857 34.9216 125.26 35.092 125.61C35.1816 125.8 35.286 125.962 35.4048 126.096C35.5258 126.229 35.667 126.332 35.8284 126.407C35.9942 126.486 36.1736 126.526 36.3664 126.526Z" fill="#002550"/>
<path d="M41.9842 127.015C41.8654 127.015 41.769 126.98 41.695 126.91C41.6232 126.839 41.5572 126.719 41.4966 126.549L39.9802 122.397H39.2102V121.925H41.621V122.397H40.9116L42.1354 125.931L43.3224 122.397H42.4314V121.925H44.711V122.397H43.894L42.4448 126.549C42.4022 126.668 42.3608 126.761 42.3204 126.827C42.2822 126.893 42.2364 126.94 42.1826 126.969C42.131 127 42.0648 127.015 41.9842 127.015Z" fill="#002550"/>
<path d="M44.1958 126.9V126.427H44.8012L46.573 121.925H47.37L49.1688 126.427H49.7336V126.9H47.5582V126.427H48.308L47.8406 125.234H45.8972L45.4568 126.427H46.304V126.9H44.1958ZM46.0552 124.814H47.6726L46.842 122.572L46.0552 124.814Z" fill="#002550"/>
<path d="M50.8526 126.9V126.427H51.636V122.397H50.3482V123.934H49.723V121.925H54.3158V123.934H53.6872V122.397H52.4296V126.427H53.2332V126.9H50.8526Z" fill="#002550"/>
<path d="M55.223 126.9V126.427H56.0434V122.397H55.223V121.925H57.607V122.397H56.8336V126.427H57.607V126.9H55.223Z" fill="#002550"/>
<path d="M61.0728 126.989C60.768 126.989 60.4832 126.942 60.2188 126.847C59.9542 126.75 59.7268 126.616 59.5362 126.447C59.3524 126.281 59.1944 126.089 59.0622 125.868C58.9322 125.646 58.8368 125.411 58.7764 125.164C58.7136 124.92 58.6822 124.667 58.6822 124.407C58.6822 123.869 58.8088 123.384 59.0622 122.949C59.1966 122.72 59.357 122.524 59.543 122.361C59.7312 122.196 59.9532 122.065 60.2088 121.968C60.4776 121.871 60.7658 121.822 61.0728 121.822C61.3776 121.822 61.6624 121.871 61.9268 121.968C62.1936 122.065 62.4212 122.198 62.6094 122.368C62.7932 122.533 62.9502 122.727 63.0802 122.949C63.2102 123.17 63.3066 123.403 63.3694 123.65C63.4298 123.897 63.46 124.149 63.46 124.407C63.46 124.945 63.3334 125.431 63.0802 125.865C62.9456 126.094 62.7854 126.29 62.5994 126.453C62.4132 126.616 62.1924 126.745 61.937 126.84C61.6724 126.939 61.3844 126.989 61.0728 126.989ZM61.0728 126.526C61.3082 126.526 61.5244 126.468 61.7218 126.351C61.9212 126.232 62.0848 126.07 62.2126 125.865C62.3382 125.667 62.4334 125.443 62.4984 125.194C62.5658 124.943 62.5994 124.683 62.5994 124.414C62.5994 124.198 62.578 123.987 62.5354 123.782C62.495 123.577 62.4324 123.387 62.3472 123.21C62.1612 122.823 61.9156 122.554 61.6108 122.404C61.4472 122.325 61.2678 122.285 61.0728 122.285C60.8374 122.285 60.6212 122.344 60.4238 122.463C60.2266 122.58 60.063 122.741 59.933 122.946C59.8074 123.147 59.711 123.372 59.6438 123.624C59.5766 123.873 59.543 124.132 59.543 124.401C59.543 124.857 59.6282 125.26 59.7984 125.61C59.8882 125.8 59.9924 125.962 60.1112 126.096C60.2322 126.229 60.3734 126.332 60.5348 126.407C60.7008 126.486 60.88 126.526 61.0728 126.526Z" fill="#002550"/>
<path d="M64.5454 126.9V126.427H65.3558V122.397H64.5454V121.925H66.3612L68.7518 126.02V122.397H67.9314V121.925H70.164V122.397H69.394V126.9H68.4962L65.998 122.629V126.427H66.768V126.9H64.5454Z" fill="#002550"/>
<path d="M73.3098 126.9V126.427H74.1302V122.397H73.3098V121.925H75.6936V122.397H74.9202V126.427H75.6936V126.9H73.3098Z" fill="#002550"/>
<path d="M76.5974 126.9V126.427H77.4078V122.397H76.5974V121.925H78.413L80.8038 126.02V122.397H79.9834V121.925H82.2158V122.397H81.446V126.9H80.5482L78.05 122.629V126.427H78.82V126.9H76.5974Z" fill="#002550"/>
<path d="M89.5714 127.009C89.4346 127.009 89.3102 126.985 89.1982 126.936C89.0884 126.89 88.9952 126.825 88.919 126.741C88.8474 126.664 88.7824 126.558 88.724 126.424C88.6658 126.289 88.6164 126.143 88.5762 125.984C88.5312 125.803 88.4932 125.624 88.4618 125.445C88.4416 125.32 88.4068 125.204 88.3576 125.098C88.3082 124.992 88.2556 124.911 88.1996 124.854C88.1458 124.801 88.0886 124.755 88.028 124.718C87.9676 124.68 87.917 124.656 87.8768 124.645C87.8408 124.636 87.8072 124.632 87.7758 124.632H86.9824V126.427H87.7456V126.9H85.3718V126.427H86.1888V122.397H85.3718V121.925H87.4632C87.6112 121.925 87.7344 121.927 87.833 121.931C87.9338 121.936 88.0606 121.944 88.213 121.958C88.399 121.975 88.5514 121.999 88.6702 122.03C88.7912 122.061 88.9258 122.11 89.0738 122.176C89.215 122.24 89.327 122.317 89.41 122.407C89.4952 122.495 89.5668 122.611 89.6252 122.754C89.6812 122.893 89.7092 123.054 89.7092 123.237C89.7092 123.623 89.587 123.91 89.3428 124.1C89.224 124.19 89.095 124.264 88.956 124.321C88.817 124.376 88.65 124.424 88.455 124.463C88.585 124.49 88.6938 124.526 88.7812 124.573C88.8686 124.619 88.9426 124.679 89.0032 124.754C89.0592 124.827 89.104 124.904 89.1376 124.986C89.1734 125.067 89.2104 125.175 89.2486 125.31C89.2778 125.418 89.3192 125.596 89.373 125.845C89.3864 125.92 89.4066 125.997 89.4336 126.077C89.4604 126.156 89.4874 126.218 89.5142 126.262C89.5434 126.31 89.5804 126.35 89.6252 126.381C89.67 126.411 89.7204 126.427 89.7764 126.427C90.0074 126.427 90.1228 126.219 90.1228 125.802V125.343H90.5768V125.829C90.5768 126.615 90.2416 127.009 89.5714 127.009ZM87.4026 124.136C87.7636 124.136 88.056 124.111 88.2802 124.06C88.5044 124.007 88.6792 123.919 88.8048 123.796C88.9348 123.67 88.9998 123.504 88.9998 123.296C88.9998 123.118 88.9672 122.97 88.9022 122.853C88.8372 122.737 88.7342 122.644 88.593 122.576C88.454 122.512 88.2892 122.467 88.0986 122.44C87.9104 122.412 87.6694 122.397 87.3758 122.397H86.9824V124.136H87.4026Z" fill="#002550"/>
<path d="M91.3864 126.9V126.427H92.2134V122.397H91.3864V121.925H95.9592V123.839H95.3506V122.397H93.0036V124.186H94.2578V123.372H94.705V125.425H94.2578V124.563H93.0036V126.427H95.3506V125.012H95.9592V126.9H91.3864Z" fill="#002550"/>
<path d="M96.9806 126.9V126.427H97.5858L99.3578 121.925H100.155L101.954 126.427H102.518V126.9H100.343V126.427H101.093L100.625 125.234H98.682L98.2414 126.427H99.0888V126.9H96.9806ZM98.84 124.814H100.457L99.6268 122.572L98.84 124.814Z" fill="#002550"/>
<path d="M103.341 126.9V126.427H104.159V122.397H103.341V121.925H105.722V122.397H104.952V126.427H106.852V124.834H107.481V126.9H103.341Z" fill="#002550"/>
<path d="M109.033 126.9V126.427H109.817V122.397H108.529V123.934H107.904V121.925H112.496V123.934H111.868V122.397H110.61V126.427H111.414V126.9H109.033Z" fill="#002550"/>
<path d="M114.702 126.9V126.427H115.519V124.933L114.066 122.397H113.38V121.925H115.63V122.397H114.86L115.996 124.45L117.166 122.397H116.416V121.925H118.454V122.397H117.818L116.312 124.949V126.427H117.082V126.9H114.702Z" fill="#002550"/>
<path d="M0 124.935H11.1899M124.81 124.935H136M18.0706 110.999H0.717662V108.941C2.3336 108.941 3.50882 108.814 4.24334 108.562C4.97784 108.273 5.43692 107.749 5.62054 106.991C5.8409 106.197 5.95108 105.023 5.95108 103.471V83.052C5.95108 81.6078 5.8409 80.4885 5.62054 79.694C5.43692 78.8998 4.97784 78.3401 4.24334 78.015C3.50882 77.654 2.3336 77.4734 0.717662 77.4734V75.4154H18.1808V77.4734C16.5281 77.4734 15.3161 77.654 14.5449 78.015C13.8104 78.3401 13.3513 78.9178 13.1677 79.7482C13.0208 80.5426 12.9473 81.6439 12.9473 83.052V103.471C12.9473 104.987 13.0391 106.143 13.2228 106.937C13.4431 107.731 13.9022 108.273 14.6 108.562C15.3345 108.814 16.4914 108.941 18.0706 108.941V110.999ZM56.6722 111.378H51.9896L30.2848 83.052H28.4668L27.0346 80.6149C26.3734 79.7121 25.7674 79.0441 25.2166 78.6108C24.7024 78.1776 24.1516 77.8888 23.564 77.7443C23.013 77.5637 22.3336 77.4734 21.5256 77.4734V75.4154H33.3146L53.0364 101.142H53.3118V84.4603C53.3118 82.9436 53.22 81.68 53.0364 80.6691C52.8528 79.6218 52.3936 78.8275 51.6592 78.2859C50.9614 77.7443 49.7678 77.4734 48.0784 77.4734V75.4154H61.6302V77.4734C60.1244 77.4734 59.0042 77.7443 58.2698 78.2859C57.572 78.8275 57.1312 79.6398 56.9476 80.723C56.764 81.7703 56.6722 83.052 56.6722 84.5686V111.378ZM35.0224 110.999H21.5256V108.941C22.9946 108.941 24.0964 108.58 24.831 107.858C25.5654 107.099 26.0612 106.052 26.3184 104.716C26.5754 103.38 26.704 101.81 26.704 100.004V79.2066H30.0094V102.496C30.0094 104.301 30.1378 105.673 30.395 106.612C30.652 107.515 31.1478 108.128 31.8824 108.453C32.6168 108.778 33.6636 108.941 35.0224 108.941V110.999ZM82.4752 110.999H64.902V108.941C66.2974 108.941 67.3442 108.833 68.042 108.616C68.7764 108.399 69.2722 107.93 69.5294 107.208C69.7864 106.486 69.915 105.366 69.915 103.85V81.6439C69.915 80.5607 69.8048 79.7301 69.5844 79.1524C69.364 78.5386 68.8866 78.1053 68.1522 77.8527C67.4544 77.5998 66.371 77.4734 64.902 77.4734V75.4154H81.2082C83.8524 75.4154 86.258 75.6863 88.4248 76.2279C90.6282 76.7695 92.3728 77.7082 93.6582 79.0441C94.9436 80.344 95.5862 82.1494 95.5862 84.4603C95.5862 86.4461 95.1456 88.0709 94.2642 89.3347C93.4194 90.5624 92.3176 91.5191 90.9588 92.2052C89.6366 92.8913 88.2044 93.4149 86.662 93.7759V94.0468C87.2496 94.4078 87.8922 95.0035 88.59 95.8339C89.3246 96.6645 90.2794 97.9102 91.4546 99.5711C92.6298 101.196 94.209 103.398 96.1922 106.179C97.0736 107.37 97.9368 108.128 98.7814 108.453C99.6628 108.778 100.728 108.941 101.977 108.941V110.999H90.7384C89.4164 108.796 88.3146 106.973 87.4332 105.529C86.5518 104.085 85.7988 102.893 85.1746 101.954C84.5502 100.979 83.981 100.113 83.4668 99.3544C82.9894 98.56 82.4752 97.7477 81.9242 96.9171C81.4102 96.0867 80.9144 95.5813 80.4368 95.4007C79.9594 95.1839 79.2434 95.0758 78.2884 95.0758H77.0214V103.904C77.0214 105.348 77.15 106.449 77.407 107.208C77.6642 107.93 78.1782 108.399 78.9496 108.616C79.7208 108.833 80.896 108.941 82.4752 108.941V110.999ZM77.0214 92.6385L79.1148 92.6927C81.0246 92.5843 82.6404 92.2775 83.9626 91.772C85.3214 91.2665 86.3498 90.454 87.0476 89.3347C87.782 88.2154 88.1494 86.6809 88.1494 84.731C88.1494 82.6368 87.5434 80.9759 86.3314 79.7482C85.1194 78.4844 83.1546 77.8527 80.4368 77.8527C79.8492 77.8527 79.2616 77.8708 78.674 77.9069C78.1232 77.9069 77.5722 77.9428 77.0214 78.015V92.6385ZM134.265 110.999H103.471V108.941C104.83 108.941 105.876 108.851 106.611 108.67C107.382 108.453 107.915 108.02 108.208 107.37C108.539 106.72 108.704 105.709 108.704 104.337V82.4562C108.704 81.0842 108.576 80.0552 108.319 79.3691C108.098 78.6469 107.602 78.1595 106.831 77.9069C106.097 77.654 104.977 77.5276 103.471 77.5276V75.4154H133.714L134.045 84.8935H131.621C131.364 83.1965 130.978 81.8785 130.464 80.9398C129.987 80.001 129.197 79.3511 128.095 78.9901C127.03 78.6289 125.433 78.4485 123.303 78.4485H115.7V91.3927H121.209C122.972 91.3927 124.276 91.2844 125.121 91.0678C126.002 90.8511 126.571 90.3998 126.828 89.7137C127.122 88.9917 127.269 87.9266 127.269 86.5183H129.528V99.0295H127.269C127.269 97.5129 127.122 96.4116 126.828 95.7257C126.571 95.0035 126.002 94.5522 125.121 94.3716C124.276 94.1549 122.972 94.0468 121.209 94.0468H115.7V108.02H122.421C124.368 108.02 125.947 107.93 127.159 107.749C128.371 107.533 129.344 107.154 130.079 106.612C130.813 106.07 131.419 105.312 131.897 104.337C132.374 103.362 132.851 102.099 133.329 100.546H135.643L134.265 110.999ZM17.5729 126.9V126.427H18.3933V122.397H17.5729V121.925H19.9568V122.397H19.1834V126.427H19.9568V126.9H17.5729ZM20.8606 126.9V126.427H21.6708V122.397H20.8606V121.925H22.6762L25.0668 126.02V122.397H24.2464V121.925H26.479V122.397H25.709V126.9H24.8114L22.313 122.629V126.427H23.083V126.9H20.8606ZM27.3324 126.9V126.427H28.1428V122.397H27.3324V121.925H29.148L31.5386 126.02V122.397H30.7182V121.925H32.9508V122.397H32.1808V126.9H31.2832L28.785 122.629V126.427H29.555V126.9H27.3324ZM36.3664 126.989C36.0614 126.989 35.7768 126.942 35.5124 126.847C35.2478 126.75 35.0202 126.616 34.8298 126.447C34.646 126.281 34.488 126.089 34.3556 125.868C34.2256 125.646 34.1304 125.411 34.0698 125.164C34.007 124.92 33.9758 124.667 33.9758 124.407C33.9758 123.869 34.1024 123.384 34.3556 122.949C34.4902 122.72 34.6504 122.524 34.8364 122.361C35.0248 122.196 35.2466 122.065 35.5022 121.968C35.7712 121.871 36.0592 121.822 36.3664 121.822C36.6712 121.822 36.9558 121.871 37.2204 121.968C37.4872 122.065 37.7146 122.198 37.903 122.368C38.0868 122.533 38.2436 122.727 38.3736 122.949C38.5036 123.17 38.6 123.403 38.6628 123.65C38.7234 123.897 38.7536 124.149 38.7536 124.407C38.7536 124.945 38.627 125.431 38.3736 125.865C38.2392 126.094 38.0788 126.29 37.8928 126.453C37.7068 126.616 37.486 126.745 37.2304 126.84C36.966 126.939 36.678 126.989 36.3664 126.989ZM36.3664 126.526C36.6018 126.526 36.818 126.468 37.0152 126.351C37.2148 126.232 37.3784 126.07 37.5062 125.865C37.6318 125.667 37.727 125.443 37.792 125.194C37.8592 124.943 37.8928 124.683 37.8928 124.414C37.8928 124.198 37.8716 123.987 37.829 123.782C37.7886 123.577 37.7258 123.387 37.6406 123.21C37.4546 122.823 37.2092 122.554 36.9044 122.404C36.7406 122.325 36.5614 122.285 36.3664 122.285C36.131 122.285 35.9146 122.344 35.7174 122.463C35.5202 122.58 35.3566 122.741 35.2266 122.946C35.101 123.147 35.0046 123.372 34.9374 123.624C34.87 123.873 34.8364 124.132 34.8364 124.401C34.8364 124.857 34.9216 125.26 35.092 125.61C35.1816 125.8 35.286 125.962 35.4048 126.096C35.5258 126.229 35.667 126.332 35.8284 126.407C35.9942 126.486 36.1736 126.526 36.3664 126.526ZM41.9842 127.015C41.8654 127.015 41.769 126.98 41.695 126.91C41.6232 126.839 41.5572 126.719 41.4966 126.549L39.9802 122.397H39.2102V121.925H41.621V122.397H40.9116L42.1354 125.931L43.3224 122.397H42.4314V121.925H44.711V122.397H43.894L42.4448 126.549C42.4022 126.668 42.3608 126.761 42.3204 126.827C42.2822 126.893 42.2364 126.94 42.1826 126.969C42.131 127 42.0648 127.015 41.9842 127.015ZM44.1958 126.9V126.427H44.8012L46.573 121.925H47.37L49.1688 126.427H49.7336V126.9H47.5582V126.427H48.308L47.8406 125.234H45.8972L45.4568 126.427H46.304V126.9H44.1958ZM46.0552 124.814H47.6726L46.842 122.572L46.0552 124.814ZM50.8526 126.9V126.427H51.636V122.397H50.3482V123.934H49.723V121.925H54.3158V123.934H53.6872V122.397H52.4296V126.427H53.2332V126.9H50.8526ZM55.223 126.9V126.427H56.0434V122.397H55.223V121.925H57.607V122.397H56.8336V126.427H57.607V126.9H55.223ZM61.0728 126.989C60.768 126.989 60.4832 126.942 60.2188 126.847C59.9542 126.75 59.7268 126.616 59.5362 126.447C59.3524 126.281 59.1944 126.089 59.0622 125.868C58.9322 125.646 58.8368 125.411 58.7764 125.164C58.7136 124.92 58.6822 124.667 58.6822 124.407C58.6822 123.869 58.8088 123.384 59.0622 122.949C59.1966 122.72 59.357 122.524 59.543 122.361C59.7312 122.196 59.9532 122.065 60.2088 121.968C60.4776 121.871 60.7658 121.822 61.0728 121.822C61.3776 121.822 61.6624 121.871 61.9268 121.968C62.1936 122.065 62.4212 122.198 62.6094 122.368C62.7932 122.533 62.9502 122.727 63.0802 122.949C63.2102 123.17 63.3066 123.403 63.3694 123.65C63.4298 123.897 63.46 124.149 63.46 124.407C63.46 124.945 63.3334 125.431 63.0802 125.865C62.9456 126.094 62.7854 126.29 62.5994 126.453C62.4132 126.616 62.1924 126.745 61.937 126.84C61.6724 126.939 61.3844 126.989 61.0728 126.989ZM61.0728 126.526C61.3082 126.526 61.5244 126.468 61.7218 126.351C61.9212 126.232 62.0848 126.07 62.2126 125.865C62.3382 125.667 62.4334 125.443 62.4984 125.194C62.5658 124.943 62.5994 124.683 62.5994 124.414C62.5994 124.198 62.578 123.987 62.5354 123.782C62.495 123.577 62.4324 123.387 62.3472 123.21C62.1612 122.823 61.9156 122.554 61.6108 122.404C61.4472 122.325 61.2678 122.285 61.0728 122.285C60.8374 122.285 60.6212 122.344 60.4238 122.463C60.2266 122.58 60.063 122.741 59.933 122.946C59.8074 123.147 59.711 123.372 59.6438 123.624C59.5766 123.873 59.543 124.132 59.543 124.401C59.543 124.857 59.6282 125.26 59.7984 125.61C59.8882 125.8 59.9924 125.962 60.1112 126.096C60.2322 126.229 60.3734 126.332 60.5348 126.407C60.7008 126.486 60.88 126.526 61.0728 126.526ZM64.5454 126.9V126.427H65.3558V122.397H64.5454V121.925H66.3612L68.7518 126.02V122.397H67.9314V121.925H70.164V122.397H69.394V126.9H68.4962L65.998 122.629V126.427H66.768V126.9H64.5454ZM73.3098 126.9V126.427H74.1302V122.397H73.3098V121.925H75.6936V122.397H74.9202V126.427H75.6936V126.9H73.3098ZM76.5974 126.9V126.427H77.4078V122.397H76.5974V121.925H78.413L80.8038 126.02V122.397H79.9834V121.925H82.2158V122.397H81.446V126.9H80.5482L78.05 122.629V126.427H78.82V126.9H76.5974ZM89.5714 127.009C89.4346 127.009 89.3102 126.985 89.1982 126.936C89.0884 126.89 88.9952 126.825 88.919 126.741C88.8474 126.664 88.7824 126.558 88.724 126.424C88.6658 126.289 88.6164 126.143 88.5762 125.984C88.5312 125.803 88.4932 125.624 88.4618 125.445C88.4416 125.32 88.4068 125.204 88.3576 125.098C88.3082 124.992 88.2556 124.911 88.1996 124.854C88.1458 124.801 88.0886 124.755 88.028 124.718C87.9676 124.68 87.917 124.656 87.8768 124.645C87.8408 124.636 87.8072 124.632 87.7758 124.632H86.9824V126.427H87.7456V126.9H85.3718V126.427H86.1888V122.397H85.3718V121.925H87.4632C87.6112 121.925 87.7344 121.927 87.833 121.931C87.9338 121.936 88.0606 121.944 88.213 121.958C88.399 121.975 88.5514 121.999 88.6702 122.03C88.7912 122.061 88.9258 122.11 89.0738 122.176C89.215 122.24 89.327 122.317 89.41 122.407C89.4952 122.495 89.5668 122.611 89.6252 122.754C89.6812 122.893 89.7092 123.054 89.7092 123.237C89.7092 123.623 89.587 123.91 89.3428 124.1C89.224 124.19 89.095 124.264 88.956 124.321C88.817 124.376 88.65 124.424 88.455 124.463C88.585 124.49 88.6938 124.526 88.7812 124.573C88.8686 124.619 88.9426 124.679 89.0032 124.754C89.0592 124.827 89.104 124.904 89.1376 124.986C89.1734 125.067 89.2104 125.175 89.2486 125.31C89.2778 125.418 89.3192 125.596 89.373 125.845C89.3864 125.92 89.4066 125.997 89.4336 126.077C89.4604 126.156 89.4874 126.218 89.5142 126.262C89.5434 126.31 89.5804 126.35 89.6252 126.381C89.67 126.411 89.7204 126.427 89.7764 126.427C90.0074 126.427 90.1228 126.219 90.1228 125.802V125.343H90.5768V125.829C90.5768 126.615 90.2416 127.009 89.5714 127.009ZM87.4026 124.136C87.7636 124.136 88.056 124.111 88.2802 124.06C88.5044 124.007 88.6792 123.919 88.8048 123.796C88.9348 123.67 88.9998 123.504 88.9998 123.296C88.9998 123.118 88.9672 122.97 88.9022 122.853C88.8372 122.737 88.7342 122.644 88.593 122.576C88.454 122.512 88.2892 122.467 88.0986 122.44C87.9104 122.412 87.6694 122.397 87.3758 122.397H86.9824V124.136H87.4026ZM91.3864 126.9V126.427H92.2134V122.397H91.3864V121.925H95.9592V123.839H95.3506V122.397H93.0036V124.186H94.2578V123.372H94.705V125.425H94.2578V124.563H93.0036V126.427H95.3506V125.012H95.9592V126.9H91.3864ZM96.9806 126.9V126.427H97.5858L99.3578 121.925H100.155L101.954 126.427H102.518V126.9H100.343V126.427H101.093L100.625 125.234H98.682L98.2414 126.427H99.0888V126.9H96.9806ZM98.84 124.814H100.457L99.6268 122.572L98.84 124.814ZM103.341 126.9V126.427H104.159V122.397H103.341V121.925H105.722V122.397H104.952V126.427H106.852V124.834H107.481V126.9H103.341ZM109.033 126.9V126.427H109.817V122.397H108.529V123.934H107.904V121.925H112.496V123.934H111.868V122.397H110.61V126.427H111.414V126.9H109.033ZM114.702 126.9V126.427H115.519V124.933L114.066 122.397H113.38V121.925H115.63V122.397H114.86L115.996 124.45L117.166 122.397H116.416V121.925H118.454V122.397H117.818L116.312 124.949V126.427H117.082V126.9H114.702Z" stroke="#002550" stroke-width="0.120698"/>
</svg>
