<svg width="20" height="19" viewBox="0 0 20 19" fill="none" xmlns="http://www.w3.org/2000/svg">
<path d="M6.11787 18.5681H6.02925C4.24412 18.5524 2.4848 18.14 0.878672 17.3607C0.583233 17.222 0.339975 16.9922 0.184511 16.7052C0.0290472 16.4182 -0.030459 16.089 0.0147039 15.7657C0.0638221 15.4403 0.21451 15.1386 0.445255 14.9039C0.676 14.6692 0.975005 14.5134 1.29958 14.4587C2.29493 14.3259 3.25247 13.9904 4.11302 13.4729C2.61897 12.3048 1.46878 10.7542 0.784322 8.98556C0.0998673 7.2169 -0.0933459 5.29601 0.225158 3.42647C0.268343 3.13034 0.395697 2.85285 0.592065 2.62703C0.788433 2.40121 1.04555 2.23656 1.33281 2.15267C1.61229 2.0649 1.91139 2.06115 2.19298 2.14188C2.47457 2.22262 2.72624 2.38428 2.91675 2.60681C3.56362 3.45503 4.37652 4.16257 5.30585 4.68627C6.23519 5.20997 7.26147 5.53885 8.32209 5.65285C8.37276 4.34787 8.93356 3.1149 9.88388 2.21913C10.3584 1.76474 10.9186 1.40934 11.5319 1.17362C12.1451 0.937913 12.7991 0.826608 13.4558 0.846195C14.1125 0.865783 14.7588 1.01587 15.3569 1.28771C15.955 1.55956 16.493 1.94772 16.9396 2.42958C17.056 2.53245 17.2005 2.598 17.3546 2.61775C17.5086 2.6375 17.6651 2.61054 17.8036 2.54035C18.0677 2.41579 18.3618 2.3689 18.6515 2.40515C18.9413 2.4414 19.2147 2.5593 19.44 2.74509C19.6652 2.93088 19.833 3.1769 19.9238 3.45444C20.0145 3.73199 20.0245 4.02961 19.9524 4.31259C19.697 5.36499 19.2129 6.34823 18.5346 7.19249C18.3852 10.3435 16.996 13.3076 14.67 15.4385C12.344 17.5695 9.26987 18.6944 6.11787 18.5681ZM6.11787 16.3528H6.20648C7.49431 16.3971 8.77813 16.1853 9.98349 15.7297C11.1889 15.2741 12.2918 14.5838 13.2284 13.6987C14.1649 12.8137 14.9165 11.7515 15.4395 10.5738C15.9625 9.39611 16.2465 8.12631 16.275 6.83804C16.2933 6.48497 16.4389 6.1505 16.6849 5.89653C16.955 5.55454 17.1854 5.18294 17.3716 4.78888C16.9726 4.78964 16.5779 4.70617 16.2133 4.54393C15.8488 4.38169 15.5225 4.14433 15.256 3.84738C14.9997 3.59323 14.6952 3.39277 14.3605 3.25773C14.0258 3.1227 13.6674 3.05579 13.3065 3.06094C12.942 3.05152 12.5792 3.11418 12.239 3.24534C11.8987 3.37649 11.5877 3.57356 11.3238 3.82522C10.9678 4.16306 10.7068 4.58847 10.5668 5.05889C10.4268 5.52931 10.4129 6.02823 10.5263 6.50574L10.8143 7.76847L9.51836 7.85708C8.19039 7.96536 6.85475 7.78371 5.60393 7.3247C4.35312 6.86568 3.21702 6.14028 2.27431 5.19871C2.23388 6.65682 2.59864 8.09758 3.32802 9.3608C4.0574 10.624 5.12283 11.6602 6.40586 12.3541L7.45813 12.9523L6.7603 13.9492C6.00565 14.9389 4.97165 15.6797 3.7918 16.0759C4.54867 16.2656 5.32653 16.3586 6.10679 16.3528H6.11787Z" fill="white"/>
</svg>
